<svg width="220" height="219" viewBox="0 0 220 219" fill="none" xmlns="http://www.w3.org/2000/svg">
<g clip-path="url(#clip0_9441_666)">
<path d="M161.851 92.3572H168.279V164.357H161.851V92.3572Z" fill="#15202E"/>
<path d="M175.565 92.3572H181.993V174.643H175.565V92.3572Z" fill="#15202E"/>
<path d="M120.708 92.3572H127.136V174.643H120.708V92.3572Z" fill="#15202E"/>
<path d="M134.423 92.3572H140.85V174.643H134.423V92.3572Z" fill="#15202E"/>
<path d="M79.564 92.3572H85.9933V174.643H79.564V92.3572Z" fill="#15202E"/>
<path d="M93.2783 92.3572H99.7077V174.643H93.2783V92.3572Z" fill="#15202E"/>
<path d="M38.4213 92.3572H44.8506V174.643H38.4213V92.3572Z" fill="#15202E"/>
<path d="M52.1355 102.643H58.5649V174.643H52.1355V102.643Z" fill="#15202E"/>
<path d="M185.636 78.6431H154.994V95.572H188.85V78.6431H185.636Z" fill="#AF0E2E"/>
<path d="M141.28 78.6431H113.851V95.572H147.707V78.6431H141.28Z" fill="#AF0E2E"/>
<path d="M100.135 78.6431H72.7069V95.572H106.565V78.6431H100.135Z" fill="#AF0E2E"/>
<path d="M58.9927 78.6431H31.5642V95.572H65.4221V78.6431H58.9927Z" fill="#AF0E2E"/>
<path d="M154.994 171.428H188.85V191.572H154.994V171.428Z" fill="#AF0E2E"/>
<path d="M113.851 171.428H147.707V191.572H113.851V171.428Z" fill="#AF0E2E"/>
<path d="M72.7069 171.428H106.565V191.572H72.7069V171.428Z" fill="#AF0E2E"/>
<path d="M31.5642 171.428H65.4221V191.572H31.5642V171.428Z" fill="#AF0E2E"/>
<path d="M93.0645 30.8571H99.9216V37.2864H93.0645V30.8571Z" fill="#AF0E2E"/>
<path d="M106.779 30.8571H113.636V37.2864H106.779V30.8571Z" fill="#AF0E2E"/>
<path d="M120.493 30.8571H127.35V37.2864H120.493V30.8571Z" fill="#AF0E2E"/>
<path d="M205.993 49.2947L114.446 0H105.968L14.4214 49.2947V68.1434H21.2785V81.8577H199.136V68.1434H205.993V49.2947ZM107.589 6.42938H112.825L190.03 47.9998H30.3846L107.589 6.42938ZM192.708 75.4283H27.7079V68.1434H192.708V75.4283ZM20.8508 61.7141V54.4292H199.565V61.7141H20.8508Z" fill="#15202E"/>
<path d="M17.6361 198.856H202.778V205.286H17.6361V198.856Z" fill="#15202E"/>
<path d="M3.92188 212.571H216.492V219H3.92188V212.571Z" fill="#15202E"/>
</g>
<defs>
<clipPath id="clip0_9441_666">
<rect width="219" height="219" fill="white" transform="translate(0.5)"/>
</clipPath>
</defs>
</svg>
